Coordinates
version=1
nRows=16
nColumns=40
inDegrees=yes

Units are S.I. units (second, meters, Newtons, ...)
Angles are in degrees.

endheader
time	pelvis_tilt	pelvis_list	pelvis_rotation	pelvis_tx	pelvis_ty	pelvis_tz	hip_flexion_r	hip_adduction_r	hip_rotation_r	knee_angle_r	knee_angle_r_beta	ankle_angle_r	subtalar_angle_r	mtp_angle_r	hip_flexion_l	hip_adduction_l	hip_rotation_l	knee_angle_l	knee_angle_l_beta	ankle_angle_l	subtalar_angle_l	mtp_angle_l	lumbar_extension	lumbar_bending	lumbar_rotation	arm_flex_r	arm_add_r	arm_rot_r	elbow_flex_r	pro_sup_r	wrist_flex_r	wrist_dev_r	arm_flex_l	arm_add_l	arm_rot_l	elbow_flex_l	pro_sup_l	wrist_flex_l	wrist_dev_l
     18.14500000	     -7.37189682	     -4.29575487	      5.08112215	      0.94384040	      0.91666853	      0.49224594	     -2.45921052	      3.34115367	    -16.61862786	     13.85036220	     13.85036220	     17.88648866	     -0.41308683	     -1.23862776	     29.54728290	     -4.04973997	      3.41190603	     24.54794799	     24.54794799	      4.17926926	    -13.96505942	     -0.01484545	     -7.66112803	      0.47869051	      4.60766367	     56.30694643	    -19.38259608	     -5.29217228	     91.75898359	     44.37764890	      0.00000000	      0.00000000	     -7.80009490	    -10.72188933	     11.76901599	     34.16679715	     44.27642503	      0.00000000	      0.00000000
     18.16457143	     -7.50277542	     -4.23131089	      4.81718670	      0.94545888	      0.91731996	      0.48913556	     -2.52059660	      2.81059425	    -16.96390752	     14.47054537	     14.47054537	     17.50407843	      0.35547348	     -2.01563103	     29.24625091	     -3.81797152	      3.46028087	     24.86780428	     24.86780428	      4.99255792	    -14.30543328	      0.91337311	     -7.57572140	      0.43205935	      4.88500832	     56.35400753	    -19.40609945	     -5.46543739	     90.24851787	     44.44691361	      0.00000000	      0.00000000	     -7.20213940	    -11.02402385	     11.00434022	     35.51019502	     44.40847818	      0.00000000	      0.00000000
     18.18414286	     -7.63444869	     -4.18340303	      4.56028059	      0.94699938	      0.91792147	      0.48597982	     -2.72009878	      2.33322963	    -17.33213713	     14.73552854	     14.73552854	     16.49211090	      1.05578397	     -4.36941466	     29.06361692	     -3.60072375	      3.45620537	     25.43422242	     25.43422242	      6.57312021	    -14.26154798	      3.71221791	     -7.52683152	      0.47578701	      3.96016022	     56.85400345	    -17.87424920	     -5.15081603	     87.65917278	     44.58029177	      0.00000000	      0.00000000	     -7.74123171	    -11.26916857	      8.56541843	     38.20174135	     44.80651130	      0.00000000	      0.00000000
     18.20371429	     -7.71279469	     -4.18263866	      4.23544826	      0.94855643	      0.91839557	      0.48287108	     -2.82911075	      1.91716705	    -17.27798218	     15.31462178	     15.31462178	     16.16394317	      1.35177542	     -4.73383631	     28.72832671	     -3.48694253	      3.34347482	     25.75182260	     25.75182260	      7.02009101	    -14.64356093	      3.77598952	     -7.49653737	      0.59614260	      4.45260936	     56.41979417	    -18.21554422	     -5.33295161	     86.38025718	     44.63551327	      0.00000000	      0.00000000	     -6.73276584	    -11.49037658	      8.09454548	     38.88020621	     44.89189255	      0.00000000	      0.00000000
     18.22328571	     -7.82092757	     -4.11897391	      3.90286756	      0.95000873	      0.91872063	      0.47965158	     -2.95632869	      1.38691325	    -17.47199719	     15.76390096	     15.76390096	     15.44447636	      1.95142172	     -6.54396001	     28.45832540	     -3.26275086	      3.31218857	     26.16528897	     26.16528897	      7.89317372	    -14.99085438	      4.94175005	     -7.41841370	      0.69592546	      4.11717281	     56.42244453	    -17.42460185	     -5.56285575	     83.54163770	     44.77975331	      0.00000000	      0.00000000	     -6.45872546	    -11.68481712	      6.60432023	     40.32889409	     45.14950580	      0.00000000	      0.00000000
     18.24285714	     -7.89129616	     -4.12623631	      3.53108120	      0.95135498	      0.91905094	      0.47650013	     -2.98320562	      0.92265318	    -17.46161103	     16.45931556	     16.45931556	     15.08256509	      2.35525465	     -7.10038914	     28.13803571	     -3.16114963	      3.14318950	     26.50131480	     26.50131480	      8.31346348	    -15.41395800	      5.17233068	     -7.42938052	      0.87908601	      4.53767461	     55.72736256	    -17.66587060	     -5.87195408	     81.72768072	     44.85669606	      0.00000000	      0.00000000	     -5.48655272	    -11.82164218	      6.19830932	     41.11439722	     45.22829073	      0.00000000	      0.00000000
     18.26242857	     -7.84607335	     -4.18169269	      3.17586309	      0.95282661	      0.91944313	      0.47339821	     -3.21081432	      0.58069027	    -17.27496731	     16.99126458	     16.99126458	     14.77896631	      2.55906547	     -7.27674253	     27.69585947	     -3.12090623	      2.99361347	     26.85028449	     26.85028449	      8.72301474	    -15.78351468	      5.13864287	     -7.58933119	      1.19114025	      4.53038527	     54.66585564	    -17.46153209	     -5.85313831	     80.81723657	     44.88318554	      0.00000000	      0.00000000	     -4.54731221	    -12.06108181	      6.03873744	     41.55811084	     45.26240186	      0.00000000	      0.00000000
     18.28200000	     -8.00002036	     -4.04204012	      2.74343916	      0.95386231	      0.91941970	      0.47009513	     -2.86184126	     -0.19449671	    -17.30833630	     18.20941966	     18.20941966	     14.48939284	      3.03400110	     -8.28952769	     27.46933116	     -2.85925590	      2.70785359	     27.20048548	     27.20048548	      9.27806051	    -16.17030068	      5.60823081	     -7.45134816	      1.20311454	      5.14782321	     53.79738017	    -18.04465902	     -6.69556764	     77.36952358	     45.02771604	      0.00000000	      0.00000000	     -3.45919860	    -12.18889290	      5.68784603	     42.49868506	     45.33146693	      0.00000000	      0.00000000
     18.30157143	     -7.97934613	     -3.99492107	      2.39353734	      0.95502437	      0.91963904	      0.46679824	     -2.90012170	     -0.74812283	    -17.22587204	     18.92155575	     18.92155575	     13.40305294	      3.11297073	    -10.97831557	     27.12944576	     -2.65848008	      2.58014219	     27.71488909	     27.71488909	     10.49435663	    -16.30335902	      7.50154640	     -7.44905581	      1.43233988	      4.15106411	     53.92366581	    -16.18714335	     -7.60970246	     71.89360319	     45.25549800	      0.00000000	      0.00000000	     -3.18125478	    -12.49402477	      5.07202440	     43.27539822	     45.46041173	      0.00000000	      0.00000000
     18.32114286	     -7.99054198	     -3.97784296	      1.99868588	      0.95605354	      0.91976892	      0.46365286	     -2.64260780	     -1.30572041	    -16.89258410	     20.11388881	     20.11388881	     12.75129746	      2.89963707	    -12.36707955	     26.76064524	     -2.53514721	      2.35575456	     28.06599846	     28.06599846	     11.18445102	    -16.54372825	      8.00107774	     -7.48047507	      1.64421348	      4.35020216	     52.68625985	    -16.30363944	     -8.01182813	     68.80377612	     45.37399977	      0.00000000	      0.00000000	     -2.08696793	    -12.58932969	      4.59824853	     43.85048763	     45.55897559	      0.00000000	      0.00000000
     18.34071429	     -7.99040415	     -3.90099099	      1.58236744	      0.95693582	      0.91990078	      0.46044852	     -2.13463925	     -2.00500878	    -16.47027959	     21.79490512	     21.79490512	     12.30184373	      2.59852996	    -13.19934200	     26.29351508	     -2.37096168	      1.98006752	     28.23081183	     28.23081183	     11.69184013	    -16.68158029	      8.09035569	     -7.58932319	      1.84255785	      4.39713569	     50.99800096	    -16.43285998	     -8.27717428	     66.58708079	     45.45221833	      0.00000000	      0.00000000	     -0.90537485	    -12.69515771	      4.44850522	     44.27663346	     45.60109279	      0.00000000	      0.00000000
     18.36028571	     -7.97131769	     -3.82983359	      1.17064330	      0.95772586	      0.91993888	      0.45730275	     -1.46342348	     -2.70801954	    -15.92391466	     23.74624470	     23.74624470	     11.63739224	      1.98363256	    -14.35845584	     25.83769168	     -2.19388491	      1.67860109	     28.44882682	     28.44882682	     12.28559564	    -16.86818826	      8.25628016	     -7.67715922	      2.04447810	      4.48772302	     49.28728721	    -16.53753160	     -8.69937676	     63.62371363	     45.56130435	      0.00000000	      0.00000000	      0.38687593	    -12.79946608	      4.42091399	     44.54322919	     45.63098176	      0.00000000	      0.00000000
     18.37985714	     -7.81817969	     -3.90248771	      0.80561982	      0.95847421	      0.92010960	      0.45425949	     -0.91763396	     -3.13755256	    -15.10596266	     25.53012344	     25.53012344	      9.86728680	      0.24762233	    -17.81950270	     25.31862441	     -2.14305079	      1.50823549	     28.81408346	     28.81408346	     13.26316571	    -16.98541363	      9.25766010	     -7.77219422	      2.45879471	      4.02455183	     48.59287275	    -15.57947411	     -9.86372121	     57.51676669	     45.80511840	      0.00000000	      0.00000000	      1.77556165	    -13.03075013	      4.97676178	     43.88943253	     45.62497229	      0.00000000	      0.00000000
     18.39942857	     -7.71311475	     -3.86807176	      0.40941322	      0.95902375	      0.92000450	      0.45126084	      0.10449933	     -3.78706446	    -14.27633815	     28.10007339	     28.10007339	      8.28900660	     -1.54892027	    -20.50350589	     24.80964327	     -1.98776448	      1.26860011	     29.07579273	     29.07579273	     14.04501766	    -17.13658546	      9.72834439	     -7.93014028	      2.74785209	      3.81608775	     46.86520417	    -15.28581456	    -10.49416415	     53.83709310	     45.93611379	      0.00000000	      0.00000000	      3.06237582	    -13.24028409	      5.22143253	     44.14194405	     45.65800977	      0.00000000	      0.00000000
     18.41900000	     -7.52987583	     -3.77778564	     -0.00326682	      0.95947557	      0.91967049	      0.44822983	      1.43440928	     -4.64025129	    -13.61193185	     31.45337498	     31.45337498	      7.18733767	     -2.75701460	    -21.34746736	     24.25537256	     -1.77410991	      0.98578927	     29.39146359	     29.39146359	     14.66203608	    -17.36679295	      9.58898960	     -8.26834566	      3.00795076	      3.67071266	     44.40659601	    -15.29625916	    -10.60453547	     51.94695615	     45.99251050	      0.00000000	      0.00000000	      4.39704251	    -13.44609864	      5.15781494	     44.59008740	     45.68901725	      0.00000000	      0.00000000
     18.43857143	     -7.42059546	     -3.74880626	     -0.44316591	      0.95965131	      0.91896633	      0.44544961	      3.16365054	     -5.31696127	    -12.58990886	     35.20893963	     35.20893963	      5.56972453	     -4.91766132	    -22.35895560	     23.85403690	     -1.62288540	      0.76813740	     29.80436524	     29.80436524	     15.33024419	    -17.65848088	      9.58265181	     -8.45777809	      3.34556897	      3.73276143	     41.89791880	    -15.45411169	    -10.84450116	     49.29697631	     46.08188480	      0.00000000	      0.00000000	      5.91726853	    -13.56182809	      5.25685468	     44.94135662	     45.70635451	      0.00000000	      0.00000000
